<mxfile host="app.diagrams.net" agent="Mozilla/5.0 (Windows NT 10.0; Win64; x64) AppleWebKit/537.36 (KHTML, like Gecko) Chrome/129.0.0.0 Safari/537.36 Edg/129.0.0.0" version="24.7.17" pages="2">
  <diagram id="C5RBs43oDa-KdzZeNtuy" name="Page-1">
    <mxGraphModel dx="586" dy="2773" grid="1" gridSize="10" guides="1" tooltips="1" connect="1" arrows="1" fold="1" page="1" pageScale="1" pageWidth="827" pageHeight="1169" math="0" shadow="0">
      <root>
        <mxCell id="WIyWlLk6GJQsqaUBKTNV-0" />
        <mxCell id="WIyWlLk6GJQsqaUBKTNV-1" parent="WIyWlLk6GJQsqaUBKTNV-0" />
        <mxCell id="96jK5LJBy4DcqI91NLuH-4" value="" style="edgeStyle=orthogonalEdgeStyle;rounded=0;orthogonalLoop=1;jettySize=auto;html=1;" edge="1" parent="WIyWlLk6GJQsqaUBKTNV-1" source="96jK5LJBy4DcqI91NLuH-0" target="96jK5LJBy4DcqI91NLuH-1">
          <mxGeometry relative="1" as="geometry" />
        </mxCell>
        <mxCell id="96jK5LJBy4DcqI91NLuH-0" value="START" style="rounded=1;whiteSpace=wrap;html=1;" vertex="1" parent="WIyWlLk6GJQsqaUBKTNV-1">
          <mxGeometry x="240" y="-1590" width="120" height="60" as="geometry" />
        </mxCell>
        <mxCell id="96jK5LJBy4DcqI91NLuH-6" value="" style="edgeStyle=orthogonalEdgeStyle;rounded=0;orthogonalLoop=1;jettySize=auto;html=1;" edge="1" parent="WIyWlLk6GJQsqaUBKTNV-1" source="96jK5LJBy4DcqI91NLuH-1" target="96jK5LJBy4DcqI91NLuH-5">
          <mxGeometry relative="1" as="geometry" />
        </mxCell>
        <mxCell id="96jK5LJBy4DcqI91NLuH-1" value="TEXT INPUT FROM&amp;nbsp;&lt;div&gt;USER&lt;/div&gt;" style="shape=parallelogram;perimeter=parallelogramPerimeter;whiteSpace=wrap;html=1;fixedSize=1;" vertex="1" parent="WIyWlLk6GJQsqaUBKTNV-1">
          <mxGeometry x="210" y="-1460" width="150" height="60" as="geometry" />
        </mxCell>
        <mxCell id="96jK5LJBy4DcqI91NLuH-14" value="" style="edgeStyle=orthogonalEdgeStyle;rounded=0;orthogonalLoop=1;jettySize=auto;html=1;" edge="1" parent="WIyWlLk6GJQsqaUBKTNV-1" source="96jK5LJBy4DcqI91NLuH-5">
          <mxGeometry relative="1" as="geometry">
            <mxPoint x="160" y="-1330" as="targetPoint" />
          </mxGeometry>
        </mxCell>
        <mxCell id="96jK5LJBy4DcqI91NLuH-5" value="Is text a palindrome" style="rhombus;whiteSpace=wrap;html=1;" vertex="1" parent="WIyWlLk6GJQsqaUBKTNV-1">
          <mxGeometry x="240" y="-1370" width="80" height="80" as="geometry" />
        </mxCell>
        <mxCell id="96jK5LJBy4DcqI91NLuH-9" value="" style="endArrow=classic;html=1;rounded=0;" edge="1" parent="WIyWlLk6GJQsqaUBKTNV-1">
          <mxGeometry width="50" height="50" relative="1" as="geometry">
            <mxPoint x="320" y="-1330" as="sourcePoint" />
            <mxPoint x="390" y="-1330" as="targetPoint" />
          </mxGeometry>
        </mxCell>
        <mxCell id="96jK5LJBy4DcqI91NLuH-15" value="yes" style="text;html=1;align=center;verticalAlign=middle;resizable=0;points=[];autosize=1;strokeColor=none;fillColor=none;" vertex="1" parent="WIyWlLk6GJQsqaUBKTNV-1">
          <mxGeometry x="180" y="-1352" width="40" height="30" as="geometry" />
        </mxCell>
        <mxCell id="96jK5LJBy4DcqI91NLuH-18" value="&lt;div&gt;&lt;br&gt;&lt;/div&gt;no" style="text;html=1;align=center;verticalAlign=middle;resizable=0;points=[];autosize=1;strokeColor=none;fillColor=none;" vertex="1" parent="WIyWlLk6GJQsqaUBKTNV-1">
          <mxGeometry x="330" y="-1367" width="40" height="40" as="geometry" />
        </mxCell>
        <mxCell id="96jK5LJBy4DcqI91NLuH-19" value="Display text is a palindrome" style="shape=parallelogram;perimeter=parallelogramPerimeter;whiteSpace=wrap;html=1;fixedSize=1;" vertex="1" parent="WIyWlLk6GJQsqaUBKTNV-1">
          <mxGeometry x="50" y="-1367" width="120" height="60" as="geometry" />
        </mxCell>
        <mxCell id="96jK5LJBy4DcqI91NLuH-20" value="Display text isnt a palindrome" style="shape=parallelogram;perimeter=parallelogramPerimeter;whiteSpace=wrap;html=1;fixedSize=1;" vertex="1" parent="WIyWlLk6GJQsqaUBKTNV-1">
          <mxGeometry x="380" y="-1360" width="120" height="60" as="geometry" />
        </mxCell>
        <mxCell id="96jK5LJBy4DcqI91NLuH-21" value="" style="endArrow=classic;html=1;rounded=0;exitX=0.417;exitY=1.05;exitDx=0;exitDy=0;exitPerimeter=0;" edge="1" parent="WIyWlLk6GJQsqaUBKTNV-1" source="96jK5LJBy4DcqI91NLuH-19">
          <mxGeometry width="50" height="50" relative="1" as="geometry">
            <mxPoint x="95" y="-1307" as="sourcePoint" />
            <mxPoint x="100" y="-1240" as="targetPoint" />
          </mxGeometry>
        </mxCell>
        <mxCell id="96jK5LJBy4DcqI91NLuH-26" value="" style="endArrow=classic;html=1;rounded=0;" edge="1" parent="WIyWlLk6GJQsqaUBKTNV-1" target="96jK5LJBy4DcqI91NLuH-27">
          <mxGeometry width="50" height="50" relative="1" as="geometry">
            <mxPoint x="280" y="-1240" as="sourcePoint" />
            <mxPoint x="280" y="-1200" as="targetPoint" />
          </mxGeometry>
        </mxCell>
        <mxCell id="96jK5LJBy4DcqI91NLuH-27" value="STOP" style="rounded=1;whiteSpace=wrap;html=1;" vertex="1" parent="WIyWlLk6GJQsqaUBKTNV-1">
          <mxGeometry x="220" y="-1230" width="120" height="60" as="geometry" />
        </mxCell>
        <mxCell id="96jK5LJBy4DcqI91NLuH-28" value="" style="endArrow=none;html=1;rounded=0;" edge="1" parent="WIyWlLk6GJQsqaUBKTNV-1">
          <mxGeometry width="50" height="50" relative="1" as="geometry">
            <mxPoint x="330" y="-1240" as="sourcePoint" />
            <mxPoint x="430" y="-1240" as="targetPoint" />
          </mxGeometry>
        </mxCell>
        <mxCell id="96jK5LJBy4DcqI91NLuH-29" value="" style="endArrow=none;html=1;rounded=0;" edge="1" parent="WIyWlLk6GJQsqaUBKTNV-1">
          <mxGeometry width="50" height="50" relative="1" as="geometry">
            <mxPoint x="100" y="-1240" as="sourcePoint" />
            <mxPoint x="330" y="-1240" as="targetPoint" />
          </mxGeometry>
        </mxCell>
        <mxCell id="96jK5LJBy4DcqI91NLuH-33" value="" style="endArrow=classic;html=1;rounded=0;exitX=0.394;exitY=1.044;exitDx=0;exitDy=0;exitPerimeter=0;" edge="1" parent="WIyWlLk6GJQsqaUBKTNV-1" source="96jK5LJBy4DcqI91NLuH-20">
          <mxGeometry width="50" height="50" relative="1" as="geometry">
            <mxPoint x="470" y="-1257" as="sourcePoint" />
            <mxPoint x="427" y="-1240" as="targetPoint" />
          </mxGeometry>
        </mxCell>
      </root>
    </mxGraphModel>
  </diagram>
  <diagram id="sLfHUgvnlHe76uVuvcnK" name="Page-2">
    <mxGraphModel dx="586" dy="3735" grid="1" gridSize="10" guides="1" tooltips="1" connect="1" arrows="1" fold="1" page="1" pageScale="1" pageWidth="850" pageHeight="1100" math="0" shadow="0">
      <root>
        <mxCell id="0" />
        <mxCell id="1" parent="0" />
        <mxCell id="ruruEw59U3fdtxcspalk-3" value="" style="edgeStyle=orthogonalEdgeStyle;rounded=0;orthogonalLoop=1;jettySize=auto;html=1;" edge="1" parent="1" source="ruruEw59U3fdtxcspalk-1" target="ruruEw59U3fdtxcspalk-2">
          <mxGeometry relative="1" as="geometry" />
        </mxCell>
        <mxCell id="ruruEw59U3fdtxcspalk-1" value="START" style="rounded=1;whiteSpace=wrap;html=1;" vertex="1" parent="1">
          <mxGeometry x="220" y="-3290" width="120" height="60" as="geometry" />
        </mxCell>
        <mxCell id="ruruEw59U3fdtxcspalk-5" value="" style="edgeStyle=orthogonalEdgeStyle;rounded=0;orthogonalLoop=1;jettySize=auto;html=1;" edge="1" parent="1" source="ruruEw59U3fdtxcspalk-2">
          <mxGeometry relative="1" as="geometry">
            <mxPoint x="280" y="-3010" as="targetPoint" />
          </mxGeometry>
        </mxCell>
        <mxCell id="ruruEw59U3fdtxcspalk-2" value="INPUT" style="shape=parallelogram;perimeter=parallelogramPerimeter;whiteSpace=wrap;html=1;fixedSize=1;rounded=1;" vertex="1" parent="1">
          <mxGeometry x="220" y="-3150" width="120" height="60" as="geometry" />
        </mxCell>
        <mxCell id="ruruEw59U3fdtxcspalk-8" value="" style="edgeStyle=orthogonalEdgeStyle;rounded=0;orthogonalLoop=1;jettySize=auto;html=1;" edge="1" parent="1" source="ruruEw59U3fdtxcspalk-6" target="ruruEw59U3fdtxcspalk-7">
          <mxGeometry relative="1" as="geometry" />
        </mxCell>
        <mxCell id="ruruEw59U3fdtxcspalk-6" value="Change text to lowercase" style="rounded=0;whiteSpace=wrap;html=1;" vertex="1" parent="1">
          <mxGeometry x="220" y="-3010" width="120" height="60" as="geometry" />
        </mxCell>
        <mxCell id="ruruEw59U3fdtxcspalk-7" value="remove all alphanumeric characters" style="rounded=0;whiteSpace=wrap;html=1;" vertex="1" parent="1">
          <mxGeometry x="220" y="-2870" width="120" height="60" as="geometry" />
        </mxCell>
        <mxCell id="ruruEw59U3fdtxcspalk-10" value="" style="endArrow=classic;html=1;rounded=0;exitX=0.5;exitY=1;exitDx=0;exitDy=0;" edge="1" parent="1" source="ruruEw59U3fdtxcspalk-7" target="ruruEw59U3fdtxcspalk-11">
          <mxGeometry width="50" height="50" relative="1" as="geometry">
            <mxPoint x="210" y="-2690" as="sourcePoint" />
            <mxPoint x="280" y="-2720" as="targetPoint" />
          </mxGeometry>
        </mxCell>
        <mxCell id="ruruEw59U3fdtxcspalk-11" value="reverse the characters" style="rounded=0;whiteSpace=wrap;html=1;" vertex="1" parent="1">
          <mxGeometry x="220" y="-2750" width="120" height="60" as="geometry" />
        </mxCell>
        <mxCell id="ruruEw59U3fdtxcspalk-12" value="" style="endArrow=classic;html=1;rounded=0;exitX=0.5;exitY=1;exitDx=0;exitDy=0;" edge="1" parent="1" source="ruruEw59U3fdtxcspalk-11">
          <mxGeometry width="50" height="50" relative="1" as="geometry">
            <mxPoint x="210" y="-2690" as="sourcePoint" />
            <mxPoint x="280" y="-2650" as="targetPoint" />
          </mxGeometry>
        </mxCell>
        <mxCell id="ruruEw59U3fdtxcspalk-14" value="" style="endArrow=classic;html=1;rounded=0;exitX=0.5;exitY=1;exitDx=0;exitDy=0;" edge="1" parent="1" target="ruruEw59U3fdtxcspalk-15">
          <mxGeometry width="50" height="50" relative="1" as="geometry">
            <mxPoint x="280" y="-2590" as="sourcePoint" />
            <mxPoint x="280" y="-2520" as="targetPoint" />
          </mxGeometry>
        </mxCell>
        <mxCell id="ruruEw59U3fdtxcspalk-15" value="output text is a palindrome" style="shape=parallelogram;perimeter=parallelogramPerimeter;whiteSpace=wrap;html=1;fixedSize=1;" vertex="1" parent="1">
          <mxGeometry x="220" y="-2550" width="120" height="60" as="geometry" />
        </mxCell>
        <mxCell id="ruruEw59U3fdtxcspalk-16" value="" style="endArrow=classic;html=1;rounded=0;exitX=0.5;exitY=1;exitDx=0;exitDy=0;" edge="1" parent="1" source="ruruEw59U3fdtxcspalk-15" target="ruruEw59U3fdtxcspalk-17">
          <mxGeometry width="50" height="50" relative="1" as="geometry">
            <mxPoint x="230" y="-2430" as="sourcePoint" />
            <mxPoint x="280" y="-2440" as="targetPoint" />
          </mxGeometry>
        </mxCell>
        <mxCell id="ruruEw59U3fdtxcspalk-17" value="STOP" style="rounded=1;whiteSpace=wrap;html=1;" vertex="1" parent="1">
          <mxGeometry x="220" y="-2470" width="120" height="60" as="geometry" />
        </mxCell>
        <mxCell id="ruruEw59U3fdtxcspalk-20" value="check if reversed characters equal the text input" style="rhombus;whiteSpace=wrap;html=1;" vertex="1" parent="1">
          <mxGeometry x="205" y="-2680" width="150" height="120" as="geometry" />
        </mxCell>
        <mxCell id="ruruEw59U3fdtxcspalk-23" value="" style="endArrow=none;html=1;rounded=0;" edge="1" parent="1">
          <mxGeometry width="50" height="50" relative="1" as="geometry">
            <mxPoint x="130" y="-2620" as="sourcePoint" />
            <mxPoint x="130" y="-2520" as="targetPoint" />
          </mxGeometry>
        </mxCell>
        <mxCell id="ruruEw59U3fdtxcspalk-25" value="" style="endArrow=classic;html=1;rounded=0;exitX=0;exitY=0.5;exitDx=0;exitDy=0;" edge="1" parent="1" source="ruruEw59U3fdtxcspalk-20">
          <mxGeometry width="50" height="50" relative="1" as="geometry">
            <mxPoint x="205" y="-2620" as="sourcePoint" />
            <mxPoint x="216.42857142857144" y="-2612" as="targetPoint" />
          </mxGeometry>
        </mxCell>
        <mxCell id="ruruEw59U3fdtxcspalk-30" value="" style="endArrow=none;html=1;rounded=0;" edge="1" parent="1">
          <mxGeometry width="50" height="50" relative="1" as="geometry">
            <mxPoint x="200" y="-2620" as="sourcePoint" />
            <mxPoint x="130" y="-2620" as="targetPoint" />
          </mxGeometry>
        </mxCell>
        <mxCell id="ruruEw59U3fdtxcspalk-31" value="" style="endArrow=classic;html=1;rounded=0;entryX=0;entryY=0.5;entryDx=0;entryDy=0;" edge="1" parent="1" target="ruruEw59U3fdtxcspalk-15">
          <mxGeometry width="50" height="50" relative="1" as="geometry">
            <mxPoint x="130" y="-2520" as="sourcePoint" />
            <mxPoint x="320" y="-2620" as="targetPoint" />
          </mxGeometry>
        </mxCell>
        <mxCell id="ruruEw59U3fdtxcspalk-32" value="YES" style="text;html=1;align=center;verticalAlign=middle;resizable=0;points=[];autosize=1;strokeColor=none;fillColor=none;" vertex="1" parent="1">
          <mxGeometry x="135" y="-2652" width="50" height="30" as="geometry" />
        </mxCell>
        <mxCell id="ruruEw59U3fdtxcspalk-33" value="" style="endArrow=none;html=1;rounded=0;entryX=1;entryY=0.5;entryDx=0;entryDy=0;" edge="1" parent="1" target="ruruEw59U3fdtxcspalk-20">
          <mxGeometry width="50" height="50" relative="1" as="geometry">
            <mxPoint x="510" y="-2620" as="sourcePoint" />
            <mxPoint x="320" y="-2620" as="targetPoint" />
          </mxGeometry>
        </mxCell>
        <mxCell id="ruruEw59U3fdtxcspalk-34" value="" style="endArrow=none;html=1;rounded=0;" edge="1" parent="1">
          <mxGeometry width="50" height="50" relative="1" as="geometry">
            <mxPoint x="510" y="-2620" as="sourcePoint" />
            <mxPoint x="510" y="-2560" as="targetPoint" />
          </mxGeometry>
        </mxCell>
        <mxCell id="ruruEw59U3fdtxcspalk-35" value="No" style="text;html=1;align=center;verticalAlign=middle;resizable=0;points=[];autosize=1;strokeColor=none;fillColor=none;" vertex="1" parent="1">
          <mxGeometry x="400" y="-2652" width="40" height="30" as="geometry" />
        </mxCell>
        <mxCell id="ruruEw59U3fdtxcspalk-36" value="output text isnt a palindrome" style="shape=parallelogram;perimeter=parallelogramPerimeter;whiteSpace=wrap;html=1;fixedSize=1;" vertex="1" parent="1">
          <mxGeometry x="450" y="-2560" width="120" height="60" as="geometry" />
        </mxCell>
        <mxCell id="ruruEw59U3fdtxcspalk-37" value="" style="endArrow=none;html=1;rounded=0;entryX=0.5;entryY=1;entryDx=0;entryDy=0;" edge="1" parent="1" target="ruruEw59U3fdtxcspalk-36">
          <mxGeometry width="50" height="50" relative="1" as="geometry">
            <mxPoint x="510" y="-2440" as="sourcePoint" />
            <mxPoint x="520" y="-2450" as="targetPoint" />
          </mxGeometry>
        </mxCell>
        <mxCell id="ruruEw59U3fdtxcspalk-38" value="" style="endArrow=classic;html=1;rounded=0;entryX=1;entryY=0.5;entryDx=0;entryDy=0;" edge="1" parent="1" target="ruruEw59U3fdtxcspalk-17">
          <mxGeometry width="50" height="50" relative="1" as="geometry">
            <mxPoint x="510" y="-2440" as="sourcePoint" />
            <mxPoint x="440" y="-2450" as="targetPoint" />
          </mxGeometry>
        </mxCell>
      </root>
    </mxGraphModel>
  </diagram>
</mxfile>
